<?xml version="1.0" standalone="no"?><!DOCTYPE svg PUBLIC "-//W3C//DTD SVG 1.1//EN" "http://www.w3.org/Graphics/SVG/1.1/DTD/svg11.dtd"><svg t="1493098448339" class="icon" style="" viewBox="0 0 1024 1024" version="1.1" xmlns="http://www.w3.org/2000/svg" p-id="1894" xmlns:xlink="http://www.w3.org/1999/xlink" width="200" height="200"><defs><style type="text/css"></style></defs><path d="M508.847901 0c-231.239226 0-413.068908 184.101753-413.068908 410.380824 0 102.627207 100.675146 249.92781 165.925185 323.370105l0 0.096003 3.392106 11.584362-3.104097-0.032001c63.329979 74.018313 183.173724 244.80765 185.573799 248.103753 15.616488 19.360605 37.249164 30.432951 60.705897 30.464952 23.424732 0 45.44142-11.072346 61.473921-30.816963 95.970999-122.499828 118.691709-157.988937 133.860183-181.44567 11.264352-17.440545 16.800525-26.176818 51.585612-66.146067 17.696553-20.352636 172.997406-202.726335 172.997406-335.210475C928.189006 184.101753 740.023126 0 508.847901 0zM508.879902 506.25582c-71.458233 0-129.636051-56.865777-129.636051-126.787962s58.145817-126.755961 129.636051-126.755961c71.394231 0 129.540048 56.865777 129.540048 126.755961S580.274134 506.25582 508.879902 506.25582z" p-id="1895" fill="#49C9DE"></path></svg>