<?xml version="1.0" standalone="no"?><!DOCTYPE svg PUBLIC "-//W3C//DTD SVG 1.1//EN" "http://www.w3.org/Graphics/SVG/1.1/DTD/svg11.dtd"><svg t="1493028685515" class="icon" style="" viewBox="0 0 1024 1024" version="1.1" xmlns="http://www.w3.org/2000/svg" p-id="6191" xmlns:xlink="http://www.w3.org/1999/xlink" width="200" height="200"><defs><style type="text/css"></style></defs><path d="M595.64863 550.299281 508.67272 326.550311 413.686369 505.311671l-53.003168-54.481845-89.814562 55.837726 25.328875 14.580067 57.446363-35.82595 69.432349 71.422679 80.285534-151.108556 88.824001 228.566696 75.728752-159.508877 30.883381 65.733097 33.856086-5.685489-64.48978-137.258107L595.64863 550.299281 595.64863 550.299281 595.64863 550.299281zM860.391247 736.094848 860.391247 260.08248c0-17.291828-12.973476-31.376615-28.907377-31.376615L188.22643 228.705865c-15.933901 0-28.9084 14.084787-28.9084 31.376615l0 476.012368L64.566016 736.094848l0 25.944905c0 17.297968 12.969383 31.381731 28.9084 31.381731l835.974649 0c15.933901 0 28.904307-13.964036 28.904307-31.381731l0-25.944905L860.391247 736.094848 860.391247 736.094848 860.391247 736.094848zM570.689169 761.546519l-118.335129 0 0-20.380166 118.335129 0L570.689169 761.546519 570.689169 761.546519 570.689169 761.546519zM813.197388 710.275809l-606.687546 0L206.509842 280.963043l606.687546 0L813.197388 710.275809 813.197388 710.275809 813.197388 710.275809zM813.197388 710.275809" p-id="6192" fill="#ffffff"></path></svg>