<?xml version="1.0" standalone="no"?><!DOCTYPE svg PUBLIC "-//W3C//DTD SVG 1.1//EN" "http://www.w3.org/Graphics/SVG/1.1/DTD/svg11.dtd"><svg t="1493208472820" class="icon" style="" viewBox="0 0 1024 1024" version="1.1" xmlns="http://www.w3.org/2000/svg" p-id="3250" xmlns:xlink="http://www.w3.org/1999/xlink" width="200" height="200"><defs><style type="text/css"></style></defs><path d="M959.617667 313.726238c-9.79918-18.940374-27.175943-33.845853-48.928363-41.968857l-321.610812-120.084982c-43.544749-20.629853-108.040668-16.241916-144.210449-0.135076l-321.973062 120.220059c-21.75242 8.123005-39.129182 23.027459-48.927339 41.967834-17.294898 33.43039-17.294898 73.348542 0 106.779955 9.79918 18.941398 27.175943 33.845853 48.928363 41.967834l2.047636 0.76441 0 290.149263c-9.43079 7.625678-15.492856 19.273972-15.492856 32.274054l0 86.3783c0 22.830985 18.679431 41.510416 41.510416 41.510416l9.363252 0c22.830985 0 41.510416-18.679431 41.510416-41.510416l0-86.3783c0-13.000082-6.062066-24.648376-15.492856-32.274054L186.342012 486.163565l38.620599 14.420431 0 157.932985c0 27.723412 26.744107 45.005007 35.533284 50.684356 16.413831 10.606569 39.073924 20.897959 65.529459 29.761837 59.907415 20.071128 132.059712 31.124881 203.167213 31.124881 71.107501 0 143.260821-11.053754 203.168236-31.124881 26.456558-8.863878 49.115628-19.155269 65.528436-29.761837 8.789177-5.679349 35.533284-22.960944 35.533284-50.684356L833.422524 491.324098l77.266781-28.850072c21.754466-8.121981 39.130206-23.026436 48.929386-41.968857C976.911542 387.074779 976.911542 347.157651 959.617667 313.726238zM772.022105 652.218532c-7.622608 6.753821-31.230282 20.562315-74.02597 33.203216-50.80306 15.004739-110.751407 23.26896-168.805614 23.26896-58.053184 0-118.002554-8.264221-168.803567-23.26896-42.796712-12.641925-66.404386-26.450419-74.026994-33.20424L286.35996 523.510148l159.130254 59.417251c20.560268 8.202822 44.523029 12.30628 69.210291 12.30628 24.26259-0.001023 49.221028-3.968381 72.302723-11.912307l0.376577-0.12996 184.642301-68.942185L772.022105 652.218532zM905.084657 392.293641c-2.744507 5.303796-8.529257 9.917884-15.873526 12.660344L566.670134 525.386892c-32.285311 11.013845-71.879074 11.190877-98.645694 0.424672l-0.357134-0.143263L144.371108 404.953985c-7.343245-2.741437-13.127995-7.355525-15.872502-12.660344-8.15575-15.766079-8.15575-34.590819 0-50.355875 2.744507-5.303796 8.529257-9.918907 15.872502-12.660344l323.991022-120.974235 1.023306-0.469698c11.790534-5.418406 30.53648-8.645914 49.262984-8.645914 16.556071 0 33.096792 2.523473 44.796252 8.28878l1.384533 0.682545 324.380902 121.118522c7.344269 2.742461 13.129019 7.356548 15.873526 12.660344C913.239384 357.702821 913.239384 376.528586 905.084657 392.293641z" p-id="3251" fill="#002839"></path></svg>