<?xml version="1.0" standalone="no"?><!DOCTYPE svg PUBLIC "-//W3C//DTD SVG 1.1//EN" "http://www.w3.org/Graphics/SVG/1.1/DTD/svg11.dtd"><svg t="1493049320471" class="icon" style="" viewBox="0 0 1366 1024" version="1.1" xmlns="http://www.w3.org/2000/svg" p-id="8353" xmlns:xlink="http://www.w3.org/1999/xlink" width="266.796875" height="200"><defs><style type="text/css"></style></defs><path d="M1365.142751 853.238042c0 29.921459-8.385632 57.74651-21.916992 82.141076L912.31863 453.014703 1338.651777 80.044668c16.580681 26.300391 26.490973 57.174763 26.490973 90.71729L1365.142751 853.238042 1365.142751 853.238042zM682.666667 540.682673l593.283454-519.146845c-24.394565-13.340778-51.838452-21.535827-81.378746-21.535827l-1024 0c-29.540294 0-56.98418 8.195049-81.378746 21.535827L682.666667 540.682673 682.666667 540.682673zM848.092313 509.236553l-137.410013 120.257584c-8.004467 7.051554-18.105342 10.48204-28.015634 10.48204-10.100875 0-20.011167-3.430486-28.015634-10.48204L517.24102 509.236553l-436.434022 488.463056c26.109808 16.390099 56.793598 26.300391 89.95496 26.300391l1024 0c33.161362 0 63.845152-9.910292 89.95496-26.300391L848.092313 509.236553 848.092313 509.236553zM26.490973 80.044668c-16.580681 26.300391-26.490973 57.174763-26.490973 90.71729l0 682.666667c0 29.921459 8.385632 57.74651 21.916992 82.141076L453.014703 453.014703 26.490973 80.044668 26.490973 80.044668zM26.490973 80.044668" p-id="8354" fill="#8a8a8a"></path></svg>