<?xml version="1.0" standalone="no"?><!DOCTYPE svg PUBLIC "-//W3C//DTD SVG 1.1//EN" "http://www.w3.org/Graphics/SVG/1.1/DTD/svg11.dtd"><svg t="1493271206001" class="icon" style="" viewBox="0 0 1024 1024" version="1.1" xmlns="http://www.w3.org/2000/svg" p-id="2412" xmlns:xlink="http://www.w3.org/1999/xlink" width="200" height="200"><defs><style type="text/css"></style></defs><path d="M638.976 394.56C631.232 386.752 622.848 379.712 614.272 373.12l0 0C605.376 364.544 593.344 359.296 579.968 359.296c-27.2 0-49.28 22.144-49.28 49.344 0 12.032 4.288 23.04 11.52 31.616l0 0 0 0C545.664 444.416 549.76 448 554.368 450.816c4.672 3.84 9.28 7.616 13.504 11.904l4.032 4.032c51.136 51.072 35.904 139.072-15.232 190.144L338.56 875.008c-51.072 51.072-134.208 51.072-185.344 0L149.12 870.848c-51.136-51.136-51.136-134.336 0-185.28l96.384-96.384c12.352-9.792 20.288-24.96 20.288-41.984 0-29.568-24-53.568-53.568-53.568-11.2 0-21.568 3.456-30.144 9.28 0 0 0-0.064-0.064-0.128L180.992 503.744C177.216 506.496 173.76 509.696 170.752 513.344L70.656 606.976c-94.144 94.208-94.144 248.32 0 342.4l4.096 4.032c94.144 94.08 248.128 94.08 342.272 0l218.112-218.112c94.016-94.208 101.952-242.688 7.936-336.768L638.976 394.56 638.976 394.56zM953.344 74.688l-3.968-4.032c-94.208-94.208-248.192-94.208-342.4 0L388.992 288.768C294.784 382.848 289.6 518.848 383.744 613.056l3.968 3.968c4.288 4.224 8.704 8.32 13.248 12.16 3.264 3.648 7.168 6.72 11.456 9.28 0 0.064 0.064 0.064 0.064 0.064l0 0c6.848 3.968 14.72 6.208 23.168 6.208 25.728 0 46.592-20.864 46.592-46.592 0-7.232-1.664-14.144-4.608-20.224l0 0C471.488 564.032 459.968 555.648 451.968 547.712L448 543.744c-51.072-51.136-31.68-125.44 19.456-176.576l218.24-218.048c51.008-51.136 134.144-51.136 185.28 0l4.032 3.968c51.136 51.136 51.136 134.336 0 185.344L778.88 434.624c-12.992 9.664-21.504 25.28-21.504 42.752 0 29.312 23.744 53.12 53.12 53.12 10.24 0 19.776-2.88 27.904-7.872 0 0.128 0.064 0.192 0.128 0.32l1.472-1.344c4.608-3.072 8.64-6.848 12.096-11.2l101.248-93.376C1047.552 322.816 1047.552 168.832 953.344 74.688L953.344 74.688zM953.344 74.688" p-id="2413" fill="#dbdbdb"></path></svg>