<?xml version="1.0" standalone="no"?><!DOCTYPE svg PUBLIC "-//W3C//DTD SVG 1.1//EN" "http://www.w3.org/Graphics/SVG/1.1/DTD/svg11.dtd"><svg t="1493208713020" class="icon" style="" viewBox="0 0 1024 1024" version="1.1" xmlns="http://www.w3.org/2000/svg" p-id="3982" xmlns:xlink="http://www.w3.org/1999/xlink" width="200" height="200"><defs><style type="text/css"></style></defs><path d="M756.030387 531.745716l-299.900348 0c-24.506137 0-44.298925-19.793812-44.298925-44.299949 0-24.499997 19.792788-44.292785 44.298925-44.292785l299.900348 0c24.506137 0 44.299949 19.792788 44.299949 44.292785C800.330336 511.951905 780.347213 531.745716 756.030387 531.745716L756.030387 531.745716 756.030387 531.745716zM756.030387 707.051371l-299.900348 0c-24.506137 0-44.298925-19.792788-44.298925-44.299949 0-24.505114 19.792788-44.293809 44.298925-44.293809l299.900348 0c24.506137 0 44.299949 19.788695 44.299949 44.293809C800.330336 687.259606 780.347213 707.051371 756.030387 707.051371L756.030387 707.051371 756.030387 707.051371zM959.611016 851.818499 959.611016 291.598264c0-68.049862-62.016449-61.639872-62.016449-61.639872s-370.211716 0.3776-350.418928 0c-21.1149 0.3776-31.860638-11.122315-31.860638-11.122315s-14.697747-25.445532-41.280172-65.408709c-27.708062-42.036395-59.942207-35.246759-59.942207-35.246759L141.524782 118.18061c-75.587536 0-76.342736 72.758094-76.342736 72.758094l0 657.30027c0 81.055061 61.262272 71.063499 61.262272 71.063499l776.805038 0C968.847377 919.30145 959.611016 851.818499 959.611016 851.818499L959.611016 851.818499 959.611016 851.818499zM904.004557 818.640865c0 25.073048-20.170388 45.24446-45.23832 45.24446L166.031942 863.885326c-25.074072 0-45.243437-20.171412-45.243437-45.24446L120.788505 349.656565c0-25.071002 20.169365-45.24139 45.243437-45.24139l692.734294 0c25.067932 0 45.23832 20.170388 45.23832 45.24139L904.004557 818.640865 904.004557 818.640865zM244.256538 487.445768c0 26.136264 21.180392 47.314609 47.312562 47.314609 26.130124 0 47.312562-21.178345 47.312562-47.314609 0-26.128077-21.182438-47.307446-47.312562-47.307446C265.437953 440.138322 244.256538 461.317691 244.256538 487.445768L244.256538 487.445768zM244.256538 662.751423c0 26.131147 21.180392 47.314609 47.312562 47.314609 26.130124 0 47.312562-21.183462 47.312562-47.314609 0-26.130124-21.182438-47.311539-47.312562-47.311539C265.437953 615.439884 244.256538 636.621299 244.256538 662.751423L244.256538 662.751423zM244.256538 662.751423" p-id="3983" fill="#002839"></path></svg>