<?xml version="1.0" standalone="no"?><!DOCTYPE svg PUBLIC "-//W3C//DTD SVG 1.1//EN" "http://www.w3.org/Graphics/SVG/1.1/DTD/svg11.dtd"><svg t="1493079040850" class="icon" style="" viewBox="0 0 1024 1024" version="1.1" xmlns="http://www.w3.org/2000/svg" p-id="10114" xmlns:xlink="http://www.w3.org/1999/xlink" width="200" height="200"><defs><style type="text/css"></style></defs><path d="M35.666099 0c135.979044 0 271.95911 0 407.938154 0 41.483887 4.075513 31.485458 76.520236 31.485458 123.586137 0 84.539597 0 140.259711 0 224.084843 0 48.702026 9.244158 108.394567-23.27115 122.227632-21.175726 9.009405-78.006323 2.715988-105.407082 2.715988-75.226033 0-136.374042 0-216.289008 0-49.99827 0-118.269495 11.839708-125.940809-31.236415 0-136.714944 0-273.428866 0-410.142789C9.770821 15.95911 19.605944 4.892045 35.666099 0zM91.791418 92.349721c0 97.330564 0 194.659086 0 291.98965 98.106269 0 196.211517 0 294.317785 0 0-98.688047 0-197.375074 0-296.064142-97.649011 0-195.300063 0-292.949074 0C91.565851 88.503857 91.674041 90.422707 91.791418 92.349721zM583.233194 0c135.979044 0 271.95911 0 407.938154 0 16.640913 6.125007 28.075418 17.417639 31.485458 36.668392 0 133.092605 0 266.187252 0 399.278837-3.73257 16.591922-12.465375 30.764868-28.747015 35.309887-26.608723 7.427375-70.822887 1.358504-102.668639 1.358504-75.033128 0-136.556741 0-209.444432 0-31.585483 0-78.395196 6.600637-104.038371-1.358504-36.197865-11.235474-26.009593-81.338793-26.009593-130.376617 0-65.139827 0-141.175247 0-209.145377C551.748757 75.114781 539.221121 7.91117 583.233194 0zM639.359533 92.349721c0 97.330564 0 194.659086 0 291.98965 98.106269 0 196.211517 0 294.317785 0 0-98.688047 0-197.375074 0-296.064142-97.649011 0-195.300063 0-292.949074 0C639.132946 88.503857 639.241136 90.422707 639.359533 92.349721zM225.945514 177.909982c40.989885-7.674376 73.22451 19.801911 73.921624 57.039834 0.918598 49.106209-49.635934 76.08135-88.979487 55.681329C165.876348 267.292632 168.838316 188.602463 225.945514 177.909982zM773.513629 177.909982c96.550776-17.89531 94.700311 133.801967 0 118.15416C713.246455 286.10654 711.301068 189.441449 773.513629 177.909982zM440.865811 1024c-134.610333 0-269.219646 0-403.831 0-16.765435-5.097198-28.090728-15.59065-32.854169-32.593899 0-136.261769 0-272.523537 0-408.785306 3.987736-11.962188 13.192088-25.917733 27.378304-29.877911 26.796525-7.48045 70.567721-1.358504 102.668639-1.358504 73.779752 0 140.613882 0 209.444432 0 30.953691 0 76.002759-6.853762 104.038371 1.358504 37.928912 11.108912 27.378304 80.07419 27.378304 129.018113 0 75.238281 0 139.418684 0 215.935858C475.08869 950.523386 486.554835 1019.283509 440.865811 1024zM91.791418 643.735122c0 97.331584 0 194.659086 0 291.98965 98.106269 0 196.211517 0 294.317785 0 0-98.688047 0-197.375074 0-296.064142-97.649011 0-195.300063 0-292.949074 0C91.565851 639.888237 91.674041 641.808107 91.791418 643.735122zM1022.656806 588.052772c0 38.026896 0 76.052772 0 114.079668-3.193659 38.480071-0.457258 82.842232-1.368711 123.586137-97.193795 0-194.386569 0-291.580363 0 0-22.182101 0-44.365222 0-66.546303-27.379324-3.167122-60.686668-0.453175-90.348198-1.358504-3.193659 86.013436-0.456237 177.908962-1.368711 266.185211-17.796306 0-35.591591 0-53.387896 0-45.904384-9.127802-32.854169-77.464351-32.854169-131.735122 0-75.701663 0-137.987712 0-210.503881 0-31.651826-6.456723-79.101496 1.368711-104.573199 9.337039-30.388243 49.82986-25.803418 90.348198-25.803418 68.500875 0 129.528445 0 198.493723 0 0 60.207976 0 120.417994 0 180.62597 30.571963 0 61.145967 0 91.71793 0 0.911453-59.755822-1.824948-123.132961 1.368711-180.62597C979.181603 548.792913 1020.064318 549.431849 1022.656806 588.052772zM232.79009 727.935858c43.768134-4.806309 79.948648 36.925599 62.969894 82.843252-23.534481 63.646595-136.060698 39.725282-114.98908-40.742884C186.595837 747.793905 203.419449 731.162178 232.79009 727.935858zM828.270237 1024c-32.854169 0-65.708337 0-98.562506 0 0.911453-34.859774-1.822907-73.335763 1.368711-105.930683 32.397932 0 64.794842 0 97.192774 0C828.270237 953.379205 828.270237 988.690113 828.270237 1024zM1022.656806 918.069317c0 23.08743 0 46.174861 0 69.262291-3.806058 19.311992-15.188508 31.106791-32.854169 36.668392-23.27115 0-46.54332 0-69.81447 0 0.911453-34.859774-1.822907-73.335763 1.368711-105.930683C955.12352 918.069317 988.889142 918.069317 1022.656806 918.069317z" p-id="10115" fill="#8a8a8a"></path></svg>