<?xml version="1.0" standalone="no"?><!DOCTYPE svg PUBLIC "-//W3C//DTD SVG 1.1//EN" "http://www.w3.org/Graphics/SVG/1.1/DTD/svg11.dtd"><svg t="1493078980728" class="icon" style="" viewBox="0 0 1024 1024" version="1.1" xmlns="http://www.w3.org/2000/svg" p-id="9946" xmlns:xlink="http://www.w3.org/1999/xlink" width="200" height="200"><defs><style type="text/css"></style></defs><path d="M1023.977476 961.939549l0 62.059428L868.82993 1023.998977l-93.084025 0L775.745905 713.705931 527.51331 713.705931l0-62.058404 496.464165 0 0 62.058404L868.82993 713.705931l0 248.233618L1023.977476 961.939549zM899.859644 527.536858l124.117832 0 0 93.087095L899.859644 620.623953 899.859644 527.536858zM651.627049 620.623953l0-93.087095 124.118855 0 0 93.087095L651.627049 620.623953zM527.51331 434.446693l124.113739 0 0 93.090165L527.51331 527.536858 527.51331 434.446693zM775.745905 434.446693l124.113739 0 0 93.090165L775.745905 527.536858 775.745905 434.446693zM651.627049 93.131097 527.51331 93.131097 527.51331 0.042979l124.113739 0 62.059428 0 310.293045 0 0 372.344287-372.350426 0L651.627049 93.131097 651.627049 93.131097zM713.685454 310.332954 961.918048 310.332954 961.918048 62.101383 713.685454 62.101383 713.685454 310.332954zM775.771487 124.551714l124.117832 0 0 124.117832L775.771487 248.669546 775.771487 124.551714zM93.103456 372.388289l0 124.117832L0.020455 496.506121 0.020455 372.388289 0.020455 0.042979l372.34531 0 0 279.260262 124.117832 0 0 93.084025L372.365764 372.387265 93.103456 372.388289 93.103456 372.388289zM310.311453 62.101383 62.079882 62.101383l0 248.232594 248.231571 0L310.311453 62.101383zM248.252026 248.27455 124.134193 248.27455 124.134193 124.160811l124.118855 0L248.252026 248.27455 248.252026 248.27455zM372.365764 527.536858l0 93.087095L248.252026 620.623953l0-93.087095L372.365764 527.536858 372.365764 527.536858zM372.365764 713.705931l0 310.294069L0.020455 1024 0.020455 713.705931l0-62.058404 372.34531 0L372.365764 713.705931 372.365764 713.705931zM310.311453 713.705931 62.079882 713.705931l0 248.233618 248.231571 0L310.311453 713.705931zM248.252026 899.882168 124.134193 899.882168 124.134193 775.768429l124.118855 0L248.252026 899.882168 248.252026 899.882168zM620.598359 1024l-93.085048 0L527.51331 899.882168l93.085048 0L620.598359 1024 620.598359 1024z" p-id="9947" fill="#bfbfbf"></path></svg>