<?xml version="1.0" standalone="no"?><!DOCTYPE svg PUBLIC "-//W3C//DTD SVG 1.1//EN" "http://www.w3.org/Graphics/SVG/1.1/DTD/svg11.dtd"><svg t="1493078844218" class="icon" style="" viewBox="0 0 1024 1024" version="1.1" xmlns="http://www.w3.org/2000/svg" p-id="9778" xmlns:xlink="http://www.w3.org/1999/xlink" width="200" height="200"><defs><style type="text/css"></style></defs><path d="M31.694545 0l410.667636 0c41.758545 4.074487 31.691636 76.551888 31.691636 123.641546l0 224.18716c0 48.728919 9.306182 108.445042-23.424 122.287686-21.317818 9.009479-78.529455 2.714891-106.114909 2.714891L126.785455 472.831283c-50.336 0-119.063273 11.843406-126.785455-31.24921L0 31.247776C5.630545 15.965221 15.527273 4.893401 31.694545 0L31.694545 0zM88.197818 92.392336l0 292.123966 296.286545 0L384.484364 88.31498 89.578182 88.31498C87.969455 88.54158 88.077091 90.466241 88.197818 92.392336L88.197818 92.392336zM582.922182 0l410.669091 0c16.752 6.12679 28.258909 17.426644 31.691636 36.686162l0 399.458958c-3.757091 16.603429-12.549818 30.775933-28.938182 35.325132-26.785455 7.43619-71.298909 1.361031-103.355636 1.361031L682.142545 472.831283c-31.793455 0-78.919273 6.60437-104.728727-1.361031-36.445091-11.239619-26.183273-81.372146-26.183273-130.433793L551.230545 131.793389C551.230545 75.1507 538.618182 7.91377 582.922182 0L582.922182 0zM639.425455 92.392336l0 292.123966 296.285091 0L935.710545 88.31498 640.8 88.31498C639.197091 88.54158 639.304727 90.466241 639.425455 92.392336L639.425455 92.392336zM223.245091 177.992426c41.266909-7.68 73.713455 19.810241 74.420364 57.061468 0.923636 49.133356-49.968 76.121636-89.576727 55.713345C162.775273 267.413154 165.757091 188.688493 223.245091 177.992426L223.245091 177.992426zM774.472727 177.992426c97.2-17.904224 95.335273 133.860034 0 118.206028C713.808 286.238118 711.848727 189.524616 774.472727 177.992426L774.472727 177.992426zM439.607273 1024.476146 33.073455 1024.476146C16.193455 1019.371922 4.794182 1008.87377 0 991.864471L0 582.88977c4.013091-11.969613 13.277091-25.92986 27.557818-29.893916 26.980364-7.483518 71.042909-1.361031 103.361455-1.361031L341.76 551.634824c31.162182 0 76.509091-6.853916 104.734545 1.361031 38.183273 11.111978 27.557818 80.111507 27.557818 129.078499l0 216.036751C474.053818 950.960403 485.602909 1019.75628 439.607273 1024.476146L439.607273 1024.476146zM88.197818 644.02716l0 292.131137 296.286545 0L384.484364 639.951238 89.578182 639.951238C87.969455 640.183574 88.077091 642.102499 88.197818 644.02716L88.197818 644.02716zM1025.282909 588.323854 1025.282909 702.458263c-3.211636 38.493221-0.456727 82.876594-1.371636 123.641546L730.378182 826.09981l0-66.574342c-27.565091-3.176695-61.096727-0.458936-90.951273-1.363899-3.217455 86.053289-0.458182 177.990992-1.380364 266.313143l-53.742545 0c-46.210909-9.13712-33.072-77.501311-33.072-131.80056L551.232 682.074353c0-31.666555-6.504727-79.146308 1.373091-104.621535 9.405091-30.400179 50.167273-25.817994 90.957091-25.817994l199.818182 0 0 180.708751 92.333091 0c0.914909-59.782095-1.838545-123.188347 1.373091-180.708751C981.518545 549.044706 1022.677818 549.682913 1025.282909 588.323854L1025.282909 588.323854zM230.141091 728.264784c44.061091-4.80735 80.48 36.95005 63.392 82.890936-23.694545 63.671574-136.971636 39.739518-115.761455-40.764952C183.633455 748.139563 200.574545 731.50028 230.141091 728.264784L230.141091 728.264784zM829.598545 1024.476146l-99.220364 0c0.916364-34.879104-1.84-73.375193 1.380364-105.982566l97.84 0L829.598545 1024.476146 829.598545 1024.476146zM1025.282909 918.492146l0 69.296403c-3.831273 19.316885-15.290182 31.111529-33.072 36.686162l-70.280727 0c0.916364-34.879104-1.837091-73.375193 1.380364-105.982566C957.297455 918.492146 991.294545 918.492146 1025.282909 918.492146L1025.282909 918.492146zM1025.282909 918.492146" p-id="9779" fill="#8a8a8a"></path></svg>