<?xml version="1.0" standalone="no"?><!DOCTYPE svg PUBLIC "-//W3C//DTD SVG 1.1//EN" "http://www.w3.org/Graphics/SVG/1.1/DTD/svg11.dtd"><svg t="1493208355052" class="icon" style="" viewBox="0 0 1113 1024" version="1.1" xmlns="http://www.w3.org/2000/svg" p-id="2294" xmlns:xlink="http://www.w3.org/1999/xlink" width="217.3828125" height="200"><defs><style type="text/css"></style></defs><path d="M 275.186 746.872 l 290.322 0 c 12.5024 19.3388 26.7605 37.3476 42.854 53.6007 L 275.186 800.473 L 275.186 746.872 Z M 275.186 662.069 l 251.298 0 c -5.08076 -17.2906 -8.75168 -35.2195 -10.9862 -53.6007 l -240.312 0 L 275.186 662.069 Z M 275.186 523.691 l 241.11 0 c 2.52708 -18.328 6.198 -36.3368 11.6512 -53.6007 l -252.761 0 L 275.186 523.691 Z M 743.84 882.936 l 0 46.8707 c 0 22.3713 -18.2216 40.5929 -40.5663 40.5929 L 94.167 970.399 c -22.3713 0 -40.5397 -18.2482 -40.5397 -40.5929 L 53.6273 250.447 l 201.847 -167.958 l 0 178.306 L 149.204 260.795 l 0 53.6007 l 159.871 0 L 309.075 53.6007 l 394.172 0 c 22.3713 0 40.5663 18.2216 40.5663 40.5663 l 0 160.323 c 17.264 -5.37337 35.2461 -9.04429 53.6273 -11.5448 L 797.44 94.1936 C 797.467 42.2422 755.198 0 703.273 0 L 270.797 0 L 0 225.336 l 0 704.471 c 0 51.9515 42.2422 94.1936 94.167 94.1936 l 609.08 0 c 51.9249 0 94.1936 -42.2422 94.1936 -94.1936 l 0 -35.3259 C 779.086 891.98 761.104 888.336 743.84 882.936 Z M 202.433 470.09 L 133.244 470.09 l 0 53.6007 L 202.433 523.691 L 202.433 470.09 Z M 133.244 800.473 L 202.433 800.473 l 0 -53.6007 L 133.244 746.872 L 133.244 800.473 Z M 202.433 608.468 L 133.244 608.468 l 0 53.6007 L 202.433 662.069 L 202.433 608.468 Z M 982.316 487.966 l -42.5614 -32.586 l -108.132 141.144 l -97.3325 -74.5888 l -32.6127 42.5614 l 139.867 107.175 L 982.316 487.966 Z M 1112.69 568.726 c 0 -149.284 -121.46 -270.717 -270.744 -270.717 S 571.253 419.442 571.253 568.726 s 121.433 270.717 270.717 270.717 S 1112.69 718.01 1112.69 568.726 Z M 1059.06 568.726 c 0 119.704 -97.3857 217.116 -217.116 217.116 s -217.116 -97.4123 -217.116 -217.116 c 0 -119.704 97.3857 -217.116 217.116 -217.116 S 1059.06 449.022 1059.06 568.726 Z" fill="#002839" p-id="2295"></path></svg>