<?xml version="1.0" standalone="no"?><!DOCTYPE svg PUBLIC "-//W3C//DTD SVG 1.1//EN" "http://www.w3.org/Graphics/SVG/1.1/DTD/svg11.dtd"><svg t="1493098267018" class="icon" style="" viewBox="0 0 1024 1024" version="1.1" xmlns="http://www.w3.org/2000/svg" p-id="1009" xmlns:xlink="http://www.w3.org/1999/xlink" width="200" height="200"><defs><style type="text/css"></style></defs><path d="M345.021499 704.775538C540.667411 900.157437 715.863572 958.936145 740.220307 962.408223c24.356734 3.499707 64.290235 11.084453 122.253368-46.555315 67.819618-67.732637 74.67577-103.32118 37.337373-140.601248-37.367049-37.337373-130.10008-93.751221-155.332764-108.279099-25.231661-14.525831-46.642297-9.859555-64.844867 2.799766-18.144242 12.630668-39.146579 28.732391-58.574047 42.763966-19.426445 14.060227-43.724851 20.010753-69.775156 3.501754-26.077935-16.511046-70.183456-47.432289-120.123868-97.253998-49.90869-49.882084-80.888262-93.929276-97.399307-119.947859-16.539698-26.02063-10.588149-50.290383 3.500731-69.688175 14.059204-19.398816 30.190603-40.371476 42.850947-58.515718 12.659321-18.171871 17.355273-39.58353 2.799766-64.757886-14.585183-25.174356-71.059406-117.818359-108.396779-155.098427-37.367049-37.308721-72.984245-30.453592-140.833539 37.280068-57.96211 57.874105-50.085722 97.749278-46.614667 122.07736C90.570273 334.488097 149.406287 509.393639 345.021499 704.775538L345.021499 704.775538z" p-id="1010" fill="#49C9DE"></path></svg>