<?xml version="1.0" standalone="no"?><!DOCTYPE svg PUBLIC "-//W3C//DTD SVG 1.1//EN" "http://www.w3.org/Graphics/SVG/1.1/DTD/svg11.dtd"><svg t="1493049142963" class="icon" style="" viewBox="0 0 1024 1024" version="1.1" xmlns="http://www.w3.org/2000/svg" p-id="6387" xmlns:xlink="http://www.w3.org/1999/xlink" width="200" height="200"><defs><style type="text/css"></style></defs><path d="M879.104 817.408l22.408533 87.159467-92.398933-47.633067c-35.2768 13.8752-74.496 21.691733-115.7632 21.691733-154.436267 0-279.534933-108.1344-279.534933-241.425067 0-133.341867 125.098667-241.390933 279.534933-241.390933C847.633067 395.810133 972.8 503.8592 972.8 637.201067 972.8 708.898133 936.567467 773.1712 879.104 817.408zM595.131733 513.416533c-18.107733 0-32.802133 14.882133-32.802133 33.194667 0 18.3296 14.6944 33.1264 32.802133 33.1264 18.193067 0 32.9728-14.7968 32.9728-33.1264C628.104533 528.298667 613.341867 513.416533 595.131733 513.416533zM796.8256 513.416533c-18.107733 0-32.8192 14.882133-32.8192 33.194667 0 18.3296 14.711467 33.1264 32.8192 33.1264 18.193067 0 32.904533-14.7968 32.904533-33.1264C829.730133 528.298667 815.035733 513.416533 796.8256 513.416533zM381.269333 621.892267c0 23.808 3.7376 46.762667 10.615467 68.625067-5.307733 0.238933-10.615467 0.3584-16.008533 0.3584-40.8064 0-79.8208-6.741333-115.7632-18.807467l-113.322667 58.436267 26.282667-102.331733C98.8672 575.829333 51.2 495.36 51.2 405.179733c0-157.764267 145.4592-285.7472 324.676267-285.7472 162.679467 0 297.3696 105.1648 321.006933 242.500267-5.256533-0.3072-10.615467-0.443733-15.940267-0.443733C515.4816 361.506133 381.269333 478.1056 381.269333 621.892267zM251.8016 271.854933c-21.794133 0-39.492267 17.800533-39.492267 39.816533 0 21.9648 17.698133 39.799467 39.492267 39.799467 21.777067 0 39.424-17.834667 39.424-39.799467C291.2256 289.672533 273.595733 271.854933 251.8016 271.854933zM505.8048 271.854933c-21.794133 0-39.492267 17.800533-39.492267 39.816533 0 21.9648 17.698133 39.799467 39.492267 39.799467 21.777067 0 39.492267-17.834667 39.492267-39.799467C545.297067 289.672533 527.598933 271.854933 505.8048 271.854933z" p-id="6388" fill="#8a8a8a"></path></svg>